<?xml version="1.0" encoding="utf-8"?>
<!-- Generator: Adobe Illustrator 16.0.3, SVG Export Plug-In . SVG Version: 6.00 Build 0)  -->
<!DOCTYPE svg PUBLIC "-//W3C//DTD SVG 1.1//EN" "http://www.w3.org/Graphics/SVG/1.1/DTD/svg11.dtd">
<svg version="1.1" id="Ebene_1" xmlns="http://www.w3.org/2000/svg" xmlns:xlink="http://www.w3.org/1999/xlink" x="0px" y="0px"
	 width="200px" height="200px" viewBox="0 0 200 200" enable-background="new 0 0 200 200" xml:space="preserve">
<circle fill="#FF0000" cx="99.742" cy="99.39" r="86.468"/>
<circle cx="99.348" cy="9.691" r="3.945"/>
<circle cx="33.348" cy="36.691" r="3.945"/>
<circle cx="33.348" cy="160.355" r="3.945"/>
<ellipse cx="165.847" cy="160.355" rx="3.836" ry="3.945"/>
<ellipse cx="165.847" cy="36.691" rx="3.836" ry="3.945"/>
<circle cx="100.674" cy="189.803" r="3.945"/>
<circle cx="190.156" cy="100" r="3.945"/>
<circle cx="9.331" cy="99.39" r="3.945"/>
<line fill="none" stroke="#FFFFFF" stroke-width="4" stroke-miterlimit="10" x1="47" y1="130" x2="82" y2="114"/>
<line fill="none" stroke="#FFFFFF" stroke-width="4" stroke-miterlimit="10" x1="82" y1="116.5" x2="90" y2="134.5"/>
<line fill="none" stroke="#FFFFFF" stroke-width="4" stroke-miterlimit="10" x1="90" y1="134.5" x2="104.618" y2="103.945"/>
<line fill="none" stroke="#FFFFFF" stroke-width="4" stroke-miterlimit="10" x1="103.292" y1="106.717" x2="120" y2="138"/>
<line fill="none" stroke="#FFFFFF" stroke-width="4" stroke-miterlimit="10" x1="120" y1="138" x2="135" y2="114"/>
<line fill="none" stroke="#FFFFFF" stroke-width="4" stroke-miterlimit="10" x1="135" y1="114" x2="154.5" y2="130"/>
<line fill="none" stroke="#FFFFFF" stroke-width="4" stroke-miterlimit="10" x1="47" y1="130" x2="37.292" y2="116.5"/>
<line fill="none" stroke="#FFFFFF" stroke-width="4" stroke-miterlimit="10" x1="39.25" y1="119.223" x2="29.402" y2="134.5"/>
<line fill="none" stroke="#FFFFFF" stroke-width="4" stroke-miterlimit="10" x1="73" y1="40.637" x2="55.5" y2="78.5"/>
<line fill="none" stroke="#FFFFFF" stroke-width="4" stroke-miterlimit="10" x1="44.5" y1="50" x2="77" y2="73"/>
<line fill="none" stroke="#FFFFFF" stroke-width="4" stroke-miterlimit="10" x1="118" y1="32.746" x2="144.75" y2="78.5"/>
<line fill="none" stroke="#FFFFFF" stroke-width="4" stroke-miterlimit="10" x1="144.75" y1="40.636" x2="111.646" y2="66.5"/>
</svg>
